<svg width="33" height="33" viewBox="0 0 33 33" fill="none" xmlns="http://www.w3.org/2000/svg">
<path d="M32.1427 28.4572L24.59 20.8952C25.8737 18.8528 26.62 16.4318 26.62 13.8414C26.62 6.50852 20.6793 0.560547 13.3456 0.560547C6.01177 0.560547 0.0810547 6.50852 0.0810547 13.8414C0.0810547 21.1742 6.02172 27.1222 13.3456 27.1222C16.1616 27.1222 18.7787 26.2355 20.9281 24.741L28.3913 32.2133C28.9087 32.7314 29.5854 32.9904 30.272 32.9904C30.9586 32.9904 31.6253 32.7314 32.1527 32.2133C33.1876 31.1772 33.1876 29.4934 32.1527 28.4572H32.1427ZM13.3456 22.8281C8.39002 22.8281 4.37983 18.803 4.37983 13.8513C4.37983 8.89966 8.39997 4.86461 13.3456 4.86461C18.2911 4.86461 22.3113 8.8897 22.3113 13.8414C22.3113 18.793 18.2911 22.8181 13.3456 22.8181V22.8281Z" fill="white"/>
</svg>
