<svg width="32" height="32" viewBox="0 0 32 32" fill="none" xmlns="http://www.w3.org/2000/svg">
<g clip-path="url(#clip0_985_644)">
<path d="M6.66687 0H1.33312C0.5975 0 0 0.5975 0 1.33312V6.66625C0 7.4025 0.5975 7.99937 1.33312 7.99937H6.66625C7.4025 7.99937 7.99937 7.40188 7.99937 6.66625V1.33312C7.99937 0.596875 7.40188 0 6.66625 0H6.66687Z" fill="black"/>
<path d="M6.66687 12H1.33312C0.596875 12 0 12.5975 0 13.3331V18.6663C0 19.4025 0.5975 19.9994 1.33312 19.9994H6.66625C7.4025 19.9994 7.99937 19.4019 7.99937 18.6663V13.3331C7.99937 12.5969 7.40188 12 6.66625 12H6.66687Z" fill="black"/>
<path d="M6.66687 24H1.33312C0.596875 24 0 24.5975 0 25.3331V30.6663C0 31.4025 0.5975 31.9994 1.33312 31.9994H6.66625C7.4025 31.9994 7.99937 31.4019 7.99937 30.6663V25.3331C7.99937 24.5969 7.40188 24 6.66625 24H6.66687Z" fill="black"/>
<path d="M18.6672 0H13.3341C12.5979 0 12.001 0.5975 12.001 1.33312V6.66625C12.001 7.4025 12.5985 7.99937 13.3341 7.99937H18.6672C19.4035 7.99937 20.0004 7.40188 20.0004 6.66625V1.33312C20.0004 0.596875 19.4029 0 18.6672 0Z" fill="black"/>
<path d="M18.6672 12H13.3341C12.5979 12 12.001 12.5975 12.001 13.3331V18.6663C12.001 19.4025 12.5985 19.9994 13.3341 19.9994H18.6672C19.4035 19.9994 20.0004 19.4019 20.0004 18.6663V13.3331C20.0004 12.5969 19.4029 12 18.6672 12Z" fill="black"/>
<path d="M18.6672 24H13.3341C12.5979 24 12.001 24.5975 12.001 25.3331V30.6663C12.001 31.4025 12.5985 31.9994 13.3341 31.9994H18.6672C19.4035 31.9994 20.0004 31.4019 20.0004 30.6663V25.3331C20.0004 24.5969 19.4029 24 18.6672 24Z" fill="black"/>
<path d="M30.6672 0H25.3341C24.5979 0 24.001 0.5975 24.001 1.33312V6.66625C24.001 7.4025 24.5985 7.99937 25.3341 7.99937H30.6672C31.4035 7.99937 32.0004 7.40188 32.0004 6.66625V1.33312C32.0004 0.596875 31.4029 0 30.6672 0Z" fill="black"/>
<path d="M30.6672 12H25.3341C24.5979 12 24.001 12.5975 24.001 13.3331V18.6663C24.001 19.4025 24.5985 19.9994 25.3341 19.9994H30.6672C31.4035 19.9994 32.0004 19.4019 32.0004 18.6663V13.3331C32.0004 12.5969 31.4029 12 30.6672 12Z" fill="black"/>
<path d="M30.6672 24H25.3341C24.5979 24 24.001 24.5975 24.001 25.3331V30.6663C24.001 31.4025 24.5985 31.9994 25.3341 31.9994H30.6672C31.4035 31.9994 32.0004 31.4019 32.0004 30.6663V25.3331C32.0004 24.5969 31.4029 24 30.6672 24Z" fill="black"/>
</g>
<defs>
<clipPath id="clip0_985_644">
<rect width="32" height="32" fill="white"/>
</clipPath>
</defs>
</svg>
