<svg width="20" height="20" viewBox="0 0 20 20" fill="none" xmlns="http://www.w3.org/2000/svg">
<path d="M16.1606 19.72C18.1298 19.72 19.72 18.1215 19.72 16.1606C19.72 15.831 19.6788 15.5096 19.5882 15.1883C19.547 15.0647 19.4646 14.9576 19.341 14.8999L15.3366 12.8977C15.1554 12.8071 14.9412 12.8401 14.7928 12.9801L13.2768 14.4962C9.86566 13.5075 7.19609 10.8379 6.20736 7.42676L7.72341 5.9107C7.86348 5.77063 7.89644 5.54817 7.80581 5.3669L5.8201 1.37901C5.76243 1.26366 5.66355 1.17303 5.53172 1.13183C5.21862 1.0412 4.88905 1 4.55947 1C2.59848 1 1.00003 2.59845 1.00003 4.55944C0.991792 8.58028 2.59024 12.4446 5.44109 15.2789C8.27545 18.1298 12.1397 19.7282 16.1606 19.72ZM4.55947 1.9393C4.7325 1.9393 4.90552 1.95577 5.07031 1.98873L6.82531 5.49873L5.35869 6.96535C5.25158 7.08894 5.21038 7.25373 5.2351 7.41028C5.2351 7.46796 5.25982 7.51739 5.2763 7.57507C6.33919 11.4064 9.33834 14.3891 13.1697 15.4437C13.2274 15.4685 13.2933 15.4767 13.3509 15.4932C13.5075 15.5261 13.664 15.4767 13.7794 15.3696L15.246 13.903L18.756 15.658C18.7807 15.8227 18.789 15.9958 18.7807 16.1688C18.7807 17.6189 17.6025 18.7889 16.1524 18.7972C12.3787 18.8054 8.75334 17.3058 6.10024 14.628C3.43067 11.9585 1.92285 8.3331 1.93933 4.55944C1.93933 3.1093 3.11757 1.9393 4.56771 1.93106L4.55947 1.9393Z" fill="black" stroke="black" stroke-width="0.5"/>
<path d="M10.3598 7.08926C12.1725 7.08926 13.6391 8.55588 13.6391 10.3686C13.6391 10.624 13.8451 10.8382 14.1088 10.8382C14.3725 10.8382 14.5784 10.6322 14.5784 10.3686C14.5784 8.04503 12.6916 6.1582 10.3681 6.1582C10.1127 6.1582 9.89844 6.36419 9.89844 6.62785C9.89844 6.89151 10.1044 7.0975 10.3681 7.0975L10.3598 7.08926Z" fill="black" stroke="black" stroke-width="0.5"/>
<path d="M10.3598 2.87094C14.496 2.87094 17.8494 6.22439 17.8494 10.3606C17.8494 10.616 18.0554 10.8302 18.3191 10.8302C18.5827 10.8302 18.7887 10.6242 18.7887 10.3606C18.7887 5.7053 15.0151 1.93164 10.3598 1.93164C10.1044 1.93164 9.89014 2.13763 9.89014 2.40129C9.89014 2.66495 10.0961 2.87094 10.3598 2.87094Z" fill="black" stroke="black" stroke-width="0.5"/>
</svg>
