<svg width="23" height="18" viewBox="0 0 23 18" fill="none" xmlns="http://www.w3.org/2000/svg">
<g clip-path="url(#clip0_995_238)">
<path fill-rule="evenodd" clip-rule="evenodd" d="M20.9912 12.8681C20.9912 14.9143 19.3242 16.5725 17.2869 16.5725H5.13314C3.09576 16.5725 1.42881 14.9143 1.42881 12.8681V5.13314C1.42881 4.45401 1.61403 3.81016 1.94036 3.26334L7.86729 9.19026C8.75809 10.0811 9.93995 10.5662 11.21 10.5662C12.4801 10.5662 13.6619 10.0722 14.5439 9.19026L20.4708 3.26334C20.7972 3.81016 20.9824 4.45401 20.9824 5.13314V12.8681H20.9912ZM17.2869 1.42881H5.13314C4.28644 1.42881 3.51029 1.71105 2.8929 2.18732L8.88157 8.17598C9.49895 8.79337 10.328 9.13734 11.21 9.13734C12.092 9.13734 12.921 8.79337 13.5384 8.17598L19.5271 2.18732C18.9009 1.71105 18.1247 1.42881 17.2869 1.42881ZM17.2869 0H5.13314C2.30198 0 0 2.30197 0 5.13314V12.8681C0 15.6993 2.30198 18.0013 5.13314 18.0013H17.2869C20.118 18.0013 22.42 15.6993 22.42 12.8681V5.13314C22.42 2.30197 20.118 0 17.2869 0Z" fill="black"/>
</g>
<defs>
<clipPath id="clip0_995_238">
<rect width="22.42" height="18.0013" fill="white"/>
</clipPath>
</defs>
</svg>
