<svg width="22" height="30" viewBox="0 0 22 30" fill="none" xmlns="http://www.w3.org/2000/svg">
<g clip-path="url(#clip0_995_520)">
<path d="M10.8 0C4.83781 0 0 4.83781 0 10.8C0 16.5699 9.89753 28.6866 10.3118 29.2044C10.5337 29.4707 10.9332 29.5151 11.1995 29.2931C11.229 29.2635 11.2586 29.234 11.2882 29.2044C11.7025 28.6866 21.6 16.5699 21.6 10.8C21.6 4.83781 16.7622 0 10.8 0ZM10.8 27.7989C8.78794 25.269 1.25753 15.4455 1.25753 10.8C1.25753 5.53315 5.53315 1.25753 10.8 1.24274C16.0668 1.24274 20.3425 5.51835 20.3573 10.7852C20.3573 15.4307 12.8121 25.269 10.8148 27.7989H10.8Z" fill="black"/>
<path d="M10.7999 6.03613C8.35878 6.03613 6.39111 8.0038 6.39111 10.4449C6.39111 12.886 8.35878 14.8537 10.7999 14.8537C13.241 14.8537 15.2086 12.886 15.2086 10.4449C15.2086 8.0186 13.241 6.03613 10.7999 6.03613ZM10.7999 13.5961C9.05413 13.5961 7.64865 12.1906 7.64865 10.4449C7.64865 8.69914 9.05413 7.29367 10.7999 7.29367C12.5456 7.29367 13.9511 8.69914 13.9511 10.4449C13.9511 12.1906 12.5308 13.5961 10.7999 13.5961Z" fill="black"/>
</g>
<defs>
<clipPath id="clip0_995_520">
<rect width="21.6" height="29.4263" fill="white"/>
</clipPath>
</defs>
</svg>
