<svg width="27" height="27" viewBox="0 0 27 27" fill="none" xmlns="http://www.w3.org/2000/svg">
<g clip-path="url(#clip0_919_683)">
<path d="M19.6915 0H7.30898C3.2785 0 0 3.2785 0 7.30846V19.6915C0 23.7215 3.2785 27 7.30846 27H19.6915C23.7215 27 27 23.7215 27 19.6915V7.30846C27 3.2785 23.7215 0 19.6915 0ZM25.4169 19.6915C25.4169 22.8488 22.8482 25.4169 19.691 25.4169H7.30846C4.15125 25.4169 1.58256 22.8482 1.58256 19.6915V7.30846C1.58256 4.15125 4.15125 1.58256 7.30846 1.58256H19.6915C22.8488 1.58256 25.4169 4.15125 25.4169 7.30846V19.6915Z" fill="black"/>
<path d="M13.5 6.11719C9.42891 6.11719 6.11719 9.42891 6.11719 13.5C6.11719 17.5711 9.42891 20.8828 13.5 20.8828C17.5711 20.8828 20.8828 17.5711 20.8828 13.5C20.8828 9.42891 17.5711 6.11719 13.5 6.11719ZM13.5 19.2997C10.3022 19.2997 7.70027 16.6978 7.70027 13.5C7.70027 10.3022 10.3022 7.70027 13.5 7.70027C16.6978 7.70027 19.2997 10.3022 19.2997 13.5C19.2997 16.6978 16.6978 19.2997 13.5 19.2997Z" fill="black"/>
<path d="M21.0589 3.49609C19.8561 3.49609 18.8773 4.47484 18.8773 5.67772C18.8773 6.88059 19.8555 7.85934 21.0589 7.85934C22.2623 7.85934 23.2406 6.88059 23.2406 5.67772C23.2406 4.47484 22.2618 3.49609 21.0589 3.49609ZM21.0589 6.27572C20.7288 6.27572 20.4604 6.0073 20.4604 5.67719C20.4604 5.34707 20.7288 5.07865 21.0589 5.07865C21.3891 5.07865 21.658 5.34707 21.658 5.67719C21.658 6.0073 21.3896 6.27572 21.0589 6.27572Z" fill="black"/>
</g>
<defs>
<clipPath id="clip0_919_683">
<rect width="27" height="27" fill="white"/>
</clipPath>
</defs>
</svg>
